# AST/ASF file generated using VICON BodyLanguage
# -----------------------------------------------
:version 1.10
:name VICON
:units
  mass 1.0
  length 0.45
  angle deg
:documentation
   .ast/.asf automatically generated from VICON data using
   VICON BodyBuilder and BodyLanguage model FoxedUp or BRILLIANT.MOD
:root
   order TX TY TZ RX RY RZ
   axis XYZ
   position 0 0 0  
   orientation 0 0 0 
:bonedata
  begin
     id 1 
     name lhipjoint
     direction 0.645893 -0.654526 0.392961 
     length 2.38111 
     axis 0 0 0  XYZ
  end
  begin
     id 2 
     name lfemur
     direction 0.34202 -0.939693 0  
     length 6.6822  
     axis 0 0 20  XYZ
    dof rx ry rz
    limits (-160.0 20.0)
           (-70.0 70.0)
           (-60.0 70.0)
  end
  begin
     id 3 
     name ltibia
     direction 0.34202 -0.939693 0   
     length 6.93904   
     axis 0 0 20   XYZ
    dof rx
    limits (-10.0 170.0)
  end
  begin
     id 4 
     name lfoot
     direction 0.0694967 -0.190941 0.979138   
     length 2.13616   
     axis -90 7.62852e-016 20   XYZ
    dof rx rz
    limits (-45.0 90.0)
           (-70.0 20.0)
  end
  begin
     id 5 
     name ltoes
     direction 1.535e-011 -4.2202e-011 1   
     length 1.07536   
     axis -90 7.62852e-016 20   XYZ
    dof rx
    limits (-90.0 20.0)
  end
  begin
     id 6 
     name rhipjoint
     direction -0.700219 -0.612087 0.367481   
     length 2.54621  
     axis 0 0 0  XYZ 
  end
  begin
     id 7 
     name rfemur
     direction -0.34202 -0.939693 0   
     length 6.55353   
     axis 0 0 -20   XYZ
    dof rx ry rz
    limits (-160.0 20.0)
           (-70.0 70.0)
           (-70.0 60.0)
  end
  begin
     id 8 
     name rtibia
     direction -0.34202 -0.939693 0   
     length 6.8736   
     axis 0 0 -20   XYZ
    dof rx
    limits (-10.0 170.0)
 end
 begin
     id 9 
     name rfoot
     direction -0.0679995 -0.186827 0.980037   
     length 2.1218  
     axis -90 -7.62852e-016 -20   XYZ
    dof rx rz
    limits (-45.0 90.0)
           (-20.0 70.0)
  end
  begin
     id 10 
     name rtoes
     direction -1.53589e-011 -4.21772e-011 1   
     length 1.06864   
     axis -90 -7.62852e-016 -20   XYZ
    dof rx
    limits (-90.0 20.0)
  end
  begin
     id 11 
     name lowerback
     direction -0.0416607 0.996347 -0.0745409   
     length 2.12205   
     axis 0 0 0   XYZ
    dof rx ry rz
    limits (-20.0 45.0)
           (-30.0 30.0)
           (-30.0 30.0)
  end
  begin
     id 12 
     name upperback
     direction -0.000153993 0.999276 -0.0380568   
     length 2.12759   
     axis 0 0 0   XYZ
    dof rx ry rz
    limits (-20.0 45.0)
           (-30.0 30.0)
           (-30.0 30.0)
  end
  begin
     id 13 
     name thorax
     direction 0.0187671 0.999821 -0.00241421   
     length 2.13704   
     axis 0 0 0   XYZ
    dof rx ry rz
    limits (-20.0 45.0)
           (-30.0 30.0)
           (-30.0 30.0)
  end
  begin
     id 14 
     name lowerneck
     direction 0.0268157 0.964865 0.261374   
     length 1.65253   
     axis 0 0 0   XYZ
    dof rx ry rz
    limits (-20.0 45.0)
           (-30.0 30.0)
           (-30.0 30.0)
  end
  begin
     id 15 
     name upperneck
     direction 0.00263774 0.939908 -0.341418   
     length 1.72375   
     axis 0 0 0   XYZ
    dof rx ry rz
    limits (-20.0 45.0)
           (-30.0 30.0)
           (-30.0 30.0)
  end
  begin
     id 16
     name head
     direction -0.00526001 0.989001 -0.147818  
     length 1.74878  
     axis 0 0 0   XYZ
    dof rx ry rz
    limits (-20.0 45.0)
           (-30.0 30.0)
           (-30.0 30.0)
  end
  begin
     id 17 
     name lclavicle
     direction 0.881214 0.461162 -0.103884  
     length 3.25108  
     axis 0 0 0   XYZ
    dof ry rz
    limits (-20.0 10.0)
           (0.0 20.0)
  end
  begin
     id 18 
     name lhumerus
     direction 1 -4.4899e-011 3.38092e-027   
     length 4.87408   
     axis 180 -30 -90   XYZ
    dof rx ry rz
    limits (-60.0 90.0)
           (-90.0 90.0)
           (-90.0 90.0)
  end
  begin
     id 19
     name lradius
     direction 1 -4.48931e-011 9.96288e-027   
     length 2.76729   
     axis 180 -30 -90   XYZ
    dof rx
    limits (-10.0 170.0)
  end
  begin
     id 20
     name lwrist
     direction 1 -4.4896e-011 1.50617e-026   
     length 1.38364   
     axis -9.31234e-015 90 90   XYZ
    dof ry
    limits (-180.0 0.0)
 end
  begin
     id 21 
     name lhand
     direction 1 -4.49038e-011 3.01286e-026   
     length 0.98922   
     axis -1.92217e-014 90 90   XYZ
    dof rx rz
    limits (-90.0 90.0)
           (-45.0 45.0)
  end
  begin
     id 22 
     name lfingers
     direction 1 -4.49051e-011 6.02588e-026   
     length 0.797535   
     axis -3.84436e-014 90 90   XYZ
    dof rx
    limits (0.0 90.0)
  end
  begin
     id 23
     name lthumb
     direction 0.707107 -6.34901e-011 0.707107   
     length 1.14511   
     axis -90 45 2.19363e-014   XYZ
    dof rx rz
    limits (-45.0 45.0)
           (-45.0 45.0)
  end
  begin
     id 24 
     name rclavicle
     direction -0.893894 0.441652 -0.0767889   
     length 3.29361  
     axis 0 0 0   XYZ 
    dof ry rz
    limits (-10.0 20.0)
           (-20.0 0.0)
  end
  begin
     id 25 
     name rhumerus
     direction -1 -4.48945e-011 8.0491e-028  
     length 4.71404   
     axis 180 30 90   XYZ
    dof rx ry rz
    limits (-90.0 60.0)
           (-90.0 90.0)
           (-90.0 90.0)
  end
  begin
     id 26 
     name rradius
     direction -1 -4.48986e-011 9.27795e-027   
     length 2.83468   
     axis 180 30 90   XYZ
    dof rx
    limits (-10.0 170.0)
  end
  begin
     id 27 
     name rwrist
     direction -1 -4.49029e-011 1.5064e-026   
     length 1.41734   
     axis -9.31234e-015 -90 -90   XYZ
    dof ry
    limits (-180.0 0.0)
  end
  begin
     id 28
     name rhand
     direction -1 -4.48857e-011 3.01165e-026   
     length 0.868195   
     axis -1.92217e-014 -90 -90   XYZ
    dof rx rz
    limits (-90.0 90.0)
           (-45.0 45.0)
  end
  begin
     id 29
     name rfingers
     direction -1 -4.49048e-011 6.02585e-026   
     length 0.699961   
     axis -3.84436e-014 -90 -90   XYZ
    dof rx
    limits (0.0 90.0)
  end
  begin
     id 30
     name rthumb
     direction -0.707107 -6.34854e-011 0.707107   
     length 1.00501   
     axis -90 -45 -2.19363e-014   XYZ
    dof rx rz
    limits (-45.0 45.0)
           (-45.0 45.0)
  end
:hierarchy
  begin
    root lhipjoint rhipjoint lowerback
    lhipjoint lfemur
    lfemur ltibia
    ltibia lfoot
    lfoot ltoes
    rhipjoint rfemur
    rfemur rtibia
    rtibia rfoot
    rfoot rtoes
    lowerback upperback
    upperback thorax
    thorax lowerneck lclavicle rclavicle
    lowerneck upperneck
    upperneck head
    lclavicle lhumerus
    lhumerus lradius
    lradius lwrist
    lwrist lhand lthumb
    lhand lfingers
    rclavicle rhumerus
    rhumerus rradius
    rradius rwrist
    rwrist rhand rthumb
    rhand rfingers
  end

#!OML:ASF H:\ManfredObstacles\Project 1\Capture day 2\Session 1\male.ASF
:FULLY-SPECIFIED
:DEGREES
104
root 2.0462 7.6905 22.9648 -170.752 -9.94705 180.975
lowerback 46.9803 7.08204 -2.82522
upperback 15.5303 1.08119 0.911741
thorax -4.01701 -2.05687 2.11731
lowerneck -34.4472 -3.97235 -1.77772
upperneck 21.4616 -6.90088 7.17137
head 13.1881 -2.10962 1.69936
rclavicle 3.57812e-014 2.5842e-014
rhumerus 1.36694 6.81909 -78.3364
rradius 42.3042
rwrist 35.4511
rhand -23.0654 -1.15223
rfingers 7.12502
rthumb 3.37989 -31.1052
lclavicle 3.57812e-014 2.5842e-014
lhumerus 7.92144 -19.8935 73.2635
lradius 48.675
lwrist -36.7913
lhand -23.6208 6.07378
lfingers 7.12502
lthumb 2.84354 36.0346
rfemur -96.6426 2.69565 29.1819
rtibia 135.597
rfoot -40.1414 -27.6128
rtoes -12.792
lfemur -95.2822 16.7421 -27.0352
ltibia 140.664
lfoot -30.7078 29.5732
ltoes -10.413
105
root 2.04829 7.59037 22.9213 -170.541 -9.80661 180.961
lowerback 48.2557 7.20768 -2.78104
upperback 14.6506 1.13465 0.974036
thorax -4.03665 -2.05801 2.06915
lowerneck -34.3295 -3.96692 -1.75431
upperneck 21.2433 -6.8898 7.18839
head 13.0774 -2.10956 1.70291
rclavicle -1.98785e-015 -2.11706e-014
rhumerus 1.36059 6.83012 -78.2372
rradius 43.0437
rwrist 35.7461
rhand -24.5636 -1.05103
rfingers 7.12502
rthumb 1.93306 -31.022
lclavicle -1.98785e-015 -2.11706e-014
lhumerus 7.91121 -20.0127 73.1973
lradius 49.6074
lwrist -36.6956
lhand -24.3168 6.23266
lfingers 7.12502
lthumb 2.17136 36.2014
rfemur -97.3822 3.03617 29.3281
rtibia 136.613
rfoot -40.6401 -27.6832
rtoes -12.6166
lfemur -96.0785 18.6399 -27.7151
ltibia 141.651
lfoot -31.6781 29.446
ltoes -10.4651
106
root 2.05 7.49137 22.8774 -170.32 -9.66739 180.926
lowerback 48.5392 7.29882 -2.72819
upperback 14.7086 1.18674 0.986739
thorax -4.0145 -2.05509 2.03592
lowerneck -34.2487 -3.95253 -1.68332
upperneck 21.055 -6.88584 7.18221
head 12.9834 -2.11033 1.68834
rclavicle -3.26007e-014 4.46272e-014
rhumerus 1.35003 6.79938 -78.1509
rradius 43.8263
rwrist 36.0509
rhand -26.1241 -0.958946
rfingers 7.12502
rthumb 0.425848 -30.9383
lclavicle -3.26007e-014 4.46272e-014
lhumerus 7.8937 -20.1629 73.1138
lradius 50.5762
lwrist -36.5866
lhand -24.9843 6.36566
lfingers 7.12502
lthumb 1.52674 36.3399
rfemur -98.1373 3.38081 29.4365
rtibia 137.64
rfoot -41.1174 -27.7129
rtoes -12.4468
lfemur -96.6209 18.7015 -27.6387
ltibia 142.607
lfoot -31.9709 29.9471
ltoes -10.5942
107
root 2.05148 7.39391 22.8336 -170.107 -9.55312 180.869
lowerback 48.8199 7.37135 -2.70291
upperback 14.7672 1.20368 1.01674
thorax -3.98995 -2.07149 2.04756
lowerneck -34.1894 -3.90682 -1.61486
upperneck 20.8984 -6.83075 7.14735
head 12.9021 -2.09176 1.6739
rclavicle -6.75868e-015 -2.98177e-016
rhumerus 1.36605 6.84373 -78.0409
rradius 44.6564
rwrist 36.2753
rhand -27.6735 -0.872651
rfingers 7.12502
rthumb -1.07059 -30.8497
lclavicle -6.75868e-015 -2.98177e-016
lhumerus 7.82638 -20.2539 73.0534
lradius 51.5869
lwrist -36.4639
lhand -25.6705 6.48724
lfingers 7.12502
lthumb 0.863994 36.4652
rfemur -98.8822 3.66247 29.527
rtibia 138.657
rfoot -41.5153 -27.7795
rtoes -12.3959
lfemur -97.1278 18.7343 -27.5828
ltibia 143.532
lfoot -32.1743 30.5263
ltoes -10.8222
108
root 2.05277 7.29907 22.7901 -169.9 -9.45738 180.797
lowerback 49.0869 7.42619 -2.70847
upperback 14.8264 1.18649 1.06408
thorax -3.96154 -2.10657 2.10526
lowerneck -34.1853 -3.83647 -1.53838
upperneck 20.7828 -6.73377 7.06464
head 12.8421 -2.05839 1.64838
rclavicle 7.95139e-016 2.47487e-014
rhumerus 1.42983 6.9862 -77.9044
rradius 45.5195
rwrist 36.3416
rhand -29.1412 -0.785635
rfingers 7.12502
rthumb -2.48808 -30.7509
lclavicle 7.95139e-016 2.47487e-014
lhumerus 7.70918 -20.2845 73.0104
lradius 52.6325
lwrist -36.3346
lhand -26.4224 6.62844
lfingers 7.12502
lthumb 0.137766 36.6081
rfemur -99.6055 3.90027 29.6038
rtibia 139.645
rfoot -41.8362 -27.8928
rtoes -12.485
lfemur -97.6029 18.7476 -27.5356
ltibia 144.426
lfoot -32.3114 31.1428
ltoes -11.1162
109
root 2.05367 7.20764 22.7475 -169.712 -9.38898 180.707
lowerback 49.3748 7.4534 -2.77166
upperback 14.8727 1.10817 1.15013
thorax -3.94849 -2.17638 2.25525
lowerneck -34.1897 -3.73753 -1.55185
upperneck 20.7095 -6.55476 6.97886
head 12.7994 -1.99539 1.65353
rclavicle 1.66979e-014 -8.74653e-015
rhumerus 1.5443 7.33178 -77.7012
rradius 46.4121
rwrist 36.3308
rhand -30.6177 -0.73778
rfingers 7.12502
rthumb -3.91401 -30.6816
lclavicle 1.66979e-014 -8.74653e-015
lhumerus 7.51226 -20.1531 73.0336
lradius 53.7135
lwrist -36.2434
lhand -27.1987 6.84106
lfingers 7.12502
lthumb -0.612031 36.8199
rfemur -100.282 4.05217 29.6763
rtibia 140.596
rfoot -42.1056 -28.0442
rtoes -12.7684
lfemur -98.0327 18.7301 -27.5034
ltibia 145.284
lfoot -32.3704 31.7824
ltoes -11.4372
110
root 2.05413 7.11983 22.7056 -169.537 -9.34135 180.611
lowerback 49.6696 7.45985 -2.80194
upperback 14.9141 1.02108 1.22271
thorax -3.93951 -2.24712 2.37933
lowerneck -34.1741 -3.6502 -1.56757
upperneck 20.6167 -6.39378 6.90628
head 12.7473 -1.93954 1.66022
rclavicle 1.47101e-014 -2.24627e-014
rhumerus 1.66975 7.66505 -77.4938
rradius 47.3582
rwrist 36.1825
rhand -32.0269 -0.686207
rfingers 7.12502
rthumb -5.27471 -30.6006
lclavicle 1.47101e-014 -2.24627e-014
lhumerus 7.32096 -20.0611 73.0232
lradius 54.8355
lwrist -36.1741
lhand -28.0103 7.14017
lfingers 7.12502
lthumb -1.39583 37.1154
rfemur -100.907 4.13908 29.754
rtibia 141.494
rfoot -42.3231 -28.2529
rtoes -13.1507
lfemur -98.4359 18.6921 -27.4705
ltibia 146.114
lfoot -32.3811 32.394
ltoes -11.7087
111
root 2.05395 7.0353 22.6644 -169.373 -9.30442 180.506
lowerback 49.973 7.44796 -2.8495
upperback 14.9413 0.906619 1.30738
thorax -3.94522 -2.33127 2.53573
lowerneck -34.1196 -3.57239 -1.68354
upperneck 20.5323 -6.21347 6.88616
head 12.6967 -1.87641 1.70758
rclavicle 2.46493e-014 2.98177e-015
rhumerus 1.81538 8.08512 -77.2427
rradius 48.3436
rwrist 35.9994
rhand -33.5672 -0.674468
rfingers 7.12502
rthumb -6.76182 -30.5465
lclavicle 2.46493e-014 2.98177e-015
lhumerus 7.07727 -19.8902 73.0458
lradius 56.011
lwrist -36.1735
lhand -28.839 7.55067
lfingers 7.12502
lthumb -2.19617 37.5191
rfemur -101.482 4.17069 29.8335
rtibia 142.352
rfoot -42.5311 -28.4893
rtoes -13.6012
lfemur -98.8161 18.6424 -27.4435
ltibia 146.922
lfoot -32.3873 32.938
ltoes -11.8959
112
root 2.05312 6.9539 22.6237 -169.221 -9.26246 180.396
lowerback 50.2823 7.43753 -2.86302
upperback 14.9633 0.811333 1.37412
thorax -3.95617 -2.4026 2.65022
lowerneck -34.0726 -3.51604 -1.77264
upperneck 20.4432 -6.07591 6.86468
head 12.6469 -1.82973 1.74109
rclavicle -1.11319e-014 1.88845e-015
rhumerus 1.94859 8.43281 -76.982
rradius 49.3886
rwrist 35.7785
rhand -35.126 -0.707499
rfingers 7.12502
rthumb -8.2664 -30.5258
lclavicle -1.11319e-014 1.88845e-015
lhumerus 6.86505 -19.7729 73.0414
lradius 57.2288
lwrist -36.2404
lhand -29.6294 8.03504
lfingers 7.12502
lthumb -2.95951 37.9942
rfemur -101.996 4.17408 29.9127
rtibia 143.182
rfoot -42.7939 -28.6839
rtoes -13.9923
lfemur -99.1691 18.5846 -27.4142
ltibia 147.71
lfoot -32.3725 33.4415
ltoes -11.9669
113
root 2.05149 6.87565 22.5831 -169.087 -9.19837 180.287
lowerback 50.5942 7.44287 -2.82806
upperback 14.9894 0.756148 1.41548
thorax -3.96256 -2.45146 2.69961
lowerneck -33.9973 -3.49464 -1.85241
upperneck 20.3425 -6.00437 6.88536
head 12.5929 -1.80611 1.7758
rclavicle -3.02153e-014 2.15681e-014
rhumerus 2.06289 8.64246 -76.7261
rradius 50.514
rwrist 35.5162
rhand -36.658 -0.773392
rfingers 7.12502
rthumb -9.74465 -30.5279
lclavicle -3.02153e-014 2.15681e-014
lhumerus 6.71697 -19.7478 73.001
lradius 58.4769
lwrist -36.2909
lhand -30.3508 8.52128
lfingers 7.12502
lthumb -3.65621 38.4697
rfemur -102.436 4.21017 29.9815
rtibia 143.985
rfoot -43.0995 -28.8715
rtoes -14.3338
lfemur -99.4752 18.5613 -27.3823
ltibia 148.479
lfoot -32.3785 33.9105
ltoes -12.0007
114
root 2.04915 6.80073 22.5423 -168.972 -9.10511 180.182
lowerback 50.9024 7.47091 -2.77173
upperback 15.0219 0.736068 1.44689
thorax -3.96156 -2.48326 2.71473
lowerneck -33.9671 -3.47717 -1.85592
upperneck 20.2601 -5.95987 6.84983
head 12.5506 -1.79444 1.77089
rclavicle -2.10712e-014 -2.0773e-014
rhumerus 2.16895 8.74545 -76.4652
rradius 51.7251
rwrist 35.1983
rhand -38.1074 -0.813997
rfingers 7.12502
rthumb -11.1428 -30.4981
lclavicle -2.10712e-014 -2.0773e-014
lhumerus 6.62534 -19.762 72.943
lradius 59.7439
lwrist -36.3581
lhand -30.9918 8.97082
lfingers 7.12502
lthumb -4.27519 38.9077
rfemur -102.786 4.07147 30.1494
rtibia 144.771
rfoot -43.5025 -28.8942
rtoes -14.5129
lfemur -99.7195 18.572 -27.3384
ltibia 149.223
lfoot -32.4073 34.3699
ltoes -12.0253
